<?xml version="1.0" encoding="UTF-8" standalone="no"?>
<svg
   width="16"
   height="17"
   viewBox="0 0 16 17"
   fill="none"
   version="1.1"
   id="svg5"
   sodipodi:docname="button-left.svg"
   inkscape:version="1.4.2 (ebf0e940d0, 2025-05-08)"
   xmlns:inkscape="http://www.inkscape.org/namespaces/inkscape"
   xmlns:sodipodi="http://sodipodi.sourceforge.net/DTD/sodipodi-0.dtd"
   xmlns="http://www.w3.org/2000/svg"
   xmlns:svg="http://www.w3.org/2000/svg">
  <defs
     id="defs5" />
  <sodipodi:namedview
     id="namedview5"
     pagecolor="#ffffff"
     bordercolor="#000000"
     borderopacity="0.25"
     inkscape:showpageshadow="2"
     inkscape:pageopacity="0.0"
     inkscape:pagecheckerboard="0"
     inkscape:deskcolor="#d1d1d1"
     inkscape:zoom="47.058824"
     inkscape:cx="7.99"
     inkscape:cy="8.5"
     inkscape:window-width="1116"
     inkscape:window-height="1051"
     inkscape:window-x="26"
     inkscape:window-y="23"
     inkscape:window-maximized="0"
     inkscape:current-layer="svg5" />
  <path
     fill-rule="evenodd"
     clip-rule="evenodd"
     d="M15 0H0V1V16H1V1H15V0Z"
     fill="#DFDFDF"
     id="path1"
     style="fill:#525252;fill-opacity:1" />
  <path
     fill-rule="evenodd"
     clip-rule="evenodd"
     d="M2 1H1V15H2V2H14V1H2Z"
     fill="white"
     id="path2"
     style="fill:#363636;fill-opacity:1" />
  <path
     fill-rule="evenodd"
     clip-rule="evenodd"
     d="M16 17H15H0V16H15V0H16V17Z"
     fill="black"
     id="path3" />
  <path
     fill-rule="evenodd"
     clip-rule="evenodd"
     d="M15 1H14V15H1V16H14H15V1Z"
     fill="#808080"
     id="path4"
     style="fill:#191919;fill-opacity:1" />
  <rect
     x="2"
     y="2"
     width="12"
     height="13"
     fill="#C0C0C0"
     id="rect4"
     style="fill:#2b2b2b;fill-opacity:1" />
  <path
     fill-rule="evenodd"
     clip-rule="evenodd"
     d="M9 4H8V5H7V6H6V7H5V8H6V9H7V10H8V11H9V4Z"
     fill="black"
     id="path5"
     style="fill:#ffffff;fill-opacity:1" />
</svg>
