<svg xmlns="http://www.w3.org/2000/svg" width="11" height="21" fill="none"><path fill="#fff" fill-rule="evenodd" d="M0 0v16h2v2h2v2h1v-1H3v-2H1V1h9V0Z" clip-rule="evenodd" style="fill:#525252;fill-opacity:1"/><path fill="#C0C7C8" fill-rule="evenodd" d="M1 1v15h1v1h1v1h1v1h2v-1h1v-1h1v-1h1V1Z" clip-rule="evenodd" style="fill:#363636;fill-opacity:1"/><path fill="#87888F" fill-rule="evenodd" d="M9 1h1v15H8v2H6v2H5v-1h2v-2h2Z" clip-rule="evenodd" style="fill:#2b2b2b;fill-opacity:1"/><path fill="#000" fill-rule="evenodd" d="M10 0h1v16H9v2H7v2H5v1h1v-2h2v-2h2Z" clip-rule="evenodd" style="fill:#191919;fill-opacity:1"/></svg>